<?xml version="1.0" encoding="UTF-8" standalone="no"?>
<!-- Created with Inkscape (http://www.inkscape.org/) -->

<svg
   width="210mm"
   height="297mm"
   viewBox="0 0 210 297"
   version="1.1"
   id="svg1"
   xml:space="preserve"
   xmlns:inkscape="http://www.inkscape.org/namespaces/inkscape"
   xmlns:sodipodi="http://sodipodi.sourceforge.net/DTD/sodipodi-0.dtd"
   xmlns="http://www.w3.org/2000/svg"
   xmlns:svg="http://www.w3.org/2000/svg"><sodipodi:namedview
     id="namedview1"
     pagecolor="#ffffff"
     bordercolor="#000000"
     borderopacity="0.25"
     inkscape:showpageshadow="2"
     inkscape:pageopacity="0.0"
     inkscape:pagecheckerboard="0"
     inkscape:deskcolor="#d1d1d1"
     inkscape:document-units="mm"><inkscape:page
       x="0"
       y="0"
       width="210"
       height="297"
       id="page1"
       margin="0"
       bleed="0" /><inkscape:page
       x="220"
       y="0"
       width="451.55554"
       height="321.38058"
       id="page2"
       margin="0"
       bleed="0"
       inkscape:export-filename="letter_T.svg"
       inkscape:export-xdpi="96"
       inkscape:export-ydpi="96" /></sodipodi:namedview><defs
     id="defs1" /><g
     transform="matrix(0.03527778,0,0,-0.03527778,220.00001,321.38055)"
     fill="#000000"
     stroke="none"
     id="g26"><path
       d="m 4525,8699 c -221,-21 -393,-128 -485,-300 -88,-165 -104,-466 -36,-655 73,-200 216,-332 412,-381 88,-21 343,-24 424,-4 156,38 279,138 349,283 35,73 61,158 49,158 -3,0 -78,22 -169,50 -90,27 -168,50 -174,50 -5,0 -18,-27 -27,-59 -35,-118 -111,-182 -224,-189 -156,-10 -239,70 -265,254 -13,93 -6,238 15,309 52,174 267,241 399,124 25,-21 52,-57 61,-79 9,-23 23,-40 32,-40 21,0 337,69 342,75 10,10 -53,139 -93,194 -77,104 -172,165 -305,195 -85,18 -206,25 -305,15 z"
       id="path1" /><path
       d="m 11890,8700 c -291,-28 -489,-189 -562,-457 -31,-114 -31,-327 0,-436 50,-177 163,-326 295,-390 113,-55 195,-70 377,-71 263,-1 375,34 628,195 l 22,14 -2,280 -3,280 -312,3 -313,2 v -140 -140 h 135 136 l -3,-62 -3,-63 -65,-32 c -162,-79 -338,-62 -426,41 -92,108 -110,387 -33,543 47,98 126,143 248,143 95,0 160,-32 197,-97 15,-26 28,-49 29,-51 2,-3 387,67 392,72 7,7 -44,124 -75,168 -67,98 -160,157 -289,182 -86,17 -275,25 -373,16 z"
       id="path2" /><path
       d="M 552,8438 C 502,8304 391,8009 306,7781 220,7554 150,7366 150,7364 c 0,-2 94,-4 208,-4 h 209 l 12,43 c 7,23 22,72 33,110 l 20,67 231,-2 231,-3 34,-108 33,-107 212,2 c 134,2 211,7 210,13 -2,14 -481,1284 -488,1295 -4,6 -97,10 -229,10 H 643 Z m 388,-347 67,-221 H 864 721 l 9,28 c 5,15 34,110 65,212 69,229 64,214 71,207 3,-3 36,-105 74,-226 z"
       id="path3" /><path
       d="m 2180,8019 v -661 l 413,5 c 526,6 583,15 688,114 61,57 95,120 107,199 18,111 -11,220 -76,288 -36,37 -141,96 -172,96 -8,0 5,12 30,26 59,33 107,79 133,129 18,33 22,56 22,140 0,85 -3,106 -22,140 -45,81 -109,134 -200,164 -59,20 -83,21 -493,21 h -430 z m 721,353 c 23,-26 29,-41 29,-80 0,-97 -45,-122 -220,-122 h -120 v 121 121 l 141,-4 141,-3 z m 8,-478 c 52,-20 71,-51 71,-113 0,-39 -6,-56 -26,-80 -35,-42 -77,-51 -231,-51 h -133 v 130 130 h 140 c 104,0 150,-4 179,-16 z"
       id="path4" /><path
       d="m 5852,8023 3,-658 h 350 c 380,0 447,7 562,60 108,49 225,188 263,313 42,137 45,384 5,537 -38,149 -146,291 -265,348 -104,51 -162,57 -558,57 h -362 z m 672,328 c 62,-31 100,-89 117,-180 16,-90 7,-323 -14,-371 -22,-49 -54,-88 -89,-106 -35,-18 -197,-36 -245,-28 l -33,6 v 355 355 l 108,-4 c 87,-3 116,-8 156,-27 z"
       id="path5" /><path
       d="m 7910,8020 v -660 h 555 555 v 150 150 h -334 c -184,0 -341,3 -350,6 -13,5 -16,26 -16,130 v 124 h 315 315 v 135 135 h -315 -315 v 105 105 h 340 340 v 140 140 h -545 -545 z"
       id="path6" /><path
       d="m 9752,8023 3,-658 h 205 205 l 3,268 2,267 h 255 255 v 135 135 h -255 -255 v 115 115 h 300 300 v 140 140 h -510 -510 z"
       id="path7" /><path
       d="m 5312,5768 3,-663 203,-3 202,-2 v 162 l 1,163 104,110 c 57,60 106,108 108,105 3,-3 66,-125 142,-272 l 137,-268 h 249 c 137,0 249,2 249,5 0,4 -443,733 -487,801 -12,19 2,36 222,265 129,134 235,247 235,252 0,4 -120,6 -267,5 l -267,-3 -211,-245 -210,-245 -3,248 -2,247 h -205 -205 z"
       id="path8" /><path
       d="m 220,5760 v -660 h 205 205 v 265 265 h 220 220 v -265 -265 h 210 210 l -2,658 -3,657 h -205 -205 l -3,-227 -2,-228 H 850 630 v 230 230 H 425 220 Z"
       id="path9" /><path
       d="m 2287,6413 c -4,-3 -7,-300 -7,-659 v -652 l 23,-6 c 12,-3 104,-6 205,-6 h 182 v 665 665 h -198 c -109,0 -202,-3 -205,-7 z"
       id="path10" /><path
       d="m 8910,5760 v -660 l 23,-5 c 12,-3 87,-4 167,-3 l 145,3 5,479 5,479 120,-468 c 65,-257 125,-474 133,-482 11,-10 45,-13 155,-11 l 142,3 125,488 125,488 3,-485 2,-485 33,-6 c 17,-3 93,-5 167,-3 l 135,3 v 660 660 l -267,3 -266,2 -16,-52 c -8,-29 -54,-208 -102,-397 -61,-237 -90,-338 -96,-325 -4,10 -49,179 -99,374 -50,195 -95,365 -100,377 l -9,23 h -265 -265 z"
       id="path11" /><path
       d="m 11327,6414 c -4,-4 -7,-301 -7,-660 v -653 l 33,-6 c 17,-3 104,-5 192,-3 l 160,3 5,354 c 4,262 8,350 16,340 6,-8 114,-165 239,-349 126,-184 233,-338 239,-342 6,-5 94,-7 196,-5 l 185,2 v 660 660 h -190 -190 l -5,-360 -5,-359 -245,359 -245,360 -186,3 c -102,1 -188,-1 -192,-4 z"
       id="path12" /><path
       d="m 7270,5750 v -660 h 525 525 v 160 160 h -304 c -167,0 -311,3 -320,6 -14,5 -16,59 -16,500 v 494 h -205 -205 z"
       id="path13" /><path
       d="m 4157,5948 c -2,-313 -7,-464 -16,-490 -36,-112 -182,-119 -227,-12 -8,19 -14,50 -14,71 0,68 4,67 -205,39 -103,-14 -189,-27 -191,-29 -7,-7 18,-130 36,-180 74,-198 229,-287 501,-287 109,0 188,15 264,49 78,36 167,118 200,184 53,109 57,154 62,650 l 5,457 h -205 -205 z"
       id="path14" /><path
       d="m 4745,4179 c -280,-33 -477,-201 -541,-464 -25,-98 -25,-336 -1,-425 31,-118 83,-208 166,-290 91,-90 174,-134 306,-161 149,-31 381,-19 486,25 33,14 35,13 80,-20 75,-55 221,-144 236,-144 12,0 113,194 113,217 0,4 -28,23 -63,41 -34,19 -75,44 -91,57 l -29,23 20,28 c 37,53 74,135 95,212 17,62 21,106 21,227 0,171 -18,260 -75,368 -45,86 -155,194 -240,235 -130,63 -314,90 -483,71 z m 240,-333 c 28,-13 60,-34 72,-47 57,-62 90,-206 79,-349 -5,-84 -29,-184 -45,-194 -4,-3 -38,15 -75,40 -137,92 -164,94 -199,17 -14,-32 -27,-64 -29,-71 -2,-6 28,-29 66,-50 93,-51 95,-62 9,-62 -129,0 -212,63 -250,189 -25,81 -25,297 0,368 44,124 124,183 252,183 53,0 82,-6 120,-24 z"
       id="path15" /><path
       d="m 823,4150 c -260,-38 -451,-204 -513,-445 -27,-106 -35,-241 -21,-350 36,-268 183,-453 416,-524 135,-42 386,-44 515,-6 293,88 444,335 427,700 -7,138 -23,212 -72,310 -85,174 -250,284 -468,314 -87,12 -205,12 -284,1 z m 265,-329 c 54,-28 106,-89 128,-152 26,-73 26,-298 1,-380 -34,-112 -104,-171 -220,-185 -131,-15 -245,59 -282,187 -27,87 -27,278 -1,366 28,95 93,161 181,184 47,13 150,2 193,-20 z"
       id="path16" /><path
       d="m 8835,4141 c -185,-31 -302,-107 -363,-239 -22,-46 -26,-72 -27,-137 0,-71 4,-88 33,-147 64,-131 197,-206 489,-277 119,-29 179,-58 203,-96 30,-48 26,-97 -10,-139 -39,-44 -85,-59 -163,-54 -113,8 -171,55 -203,167 l -16,53 -77,-6 c -42,-3 -127,-9 -189,-12 -62,-4 -114,-10 -116,-13 -8,-15 26,-141 54,-197 64,-131 172,-209 333,-239 102,-19 330,-19 422,0 159,33 284,128 348,262 29,62 32,76 32,168 0,87 -4,107 -26,155 -68,145 -171,206 -486,286 -95,24 -187,51 -203,59 -63,32 -62,100 0,143 45,30 136,31 197,1 36,-17 48,-31 74,-85 23,-49 35,-64 47,-60 9,2 87,7 172,11 85,3 162,8 171,11 39,11 -29,192 -100,263 -47,47 -113,83 -197,106 -67,19 -319,29 -399,16 z"
       id="path17" /><path
       d="m 2370,3480 v -660 h 210 210 v 245 245 h 163 c 184,0 258,13 349,62 144,77 217,245 189,434 -21,143 -83,236 -192,286 -93,44 -137,48 -544,48 h -385 z m 624,379 c 49,-14 81,-46 97,-97 10,-35 9,-48 -5,-86 -27,-70 -67,-90 -193,-94 l -103,-4 v 146 146 h 83 c 45,0 99,-5 121,-11 z"
       id="path18" /><path
       d="m 6370,3480 v -660 h 205 205 l 2,268 3,267 44,-3 c 53,-3 93,-23 119,-59 11,-16 73,-126 138,-246 64,-121 122,-221 128,-223 7,-2 111,-3 233,-2 l 222,3 -110,211 c -119,229 -177,307 -256,348 l -45,22 44,13 c 96,28 189,108 231,199 32,68 32,246 1,313 -30,64 -88,126 -148,156 -90,46 -166,52 -608,53 h -408 z m 709,374 c 74,-29 94,-134 37,-193 -35,-36 -102,-51 -232,-51 h -104 v 130 130 h 130 c 95,0 140,-4 169,-16 z"
       id="path19" /><path
       d="m 10700,3965 v -165 h 210 210 v -495 -495 h 205 205 v 495 495 h 205 205 v 165 165 h -620 -620 z"
       id="path20" /><path
       d="m 4150,1858 c 0,-7 65,-303 144,-658 l 143,-645 201,-3 201,-2 14,47 c 8,27 59,209 113,405 61,221 102,352 106,343 5,-8 57,-188 117,-402 l 109,-388 200,-3 c 185,-2 201,-1 206,15 6,20 212,958 252,1143 13,63 26,125 29,138 l 5,22 h -193 -193 l -37,-197 c -21,-109 -52,-271 -69,-361 -17,-90 -32,-161 -35,-159 -2,3 -48,164 -102,358 l -97,354 -195,3 -194,2 -79,-287 c -44,-159 -89,-322 -101,-363 -22,-74 -23,-74 -30,-40 -4,19 -35,181 -68,360 l -62,325 -193,3 c -150,2 -192,0 -192,-10 z"
       id="path21" /><path
       d="m 183,1418 c 3,-387 6,-451 22,-508 27,-99 71,-178 134,-241 106,-106 203,-137 446,-146 181,-6 287,8 382,52 74,33 190,151 226,227 54,114 57,146 57,621 v 437 h -205 -205 v -437 c 0,-404 -2,-441 -19,-478 -36,-78 -102,-115 -203,-115 -72,0 -129,23 -170,66 -52,56 -52,58 -56,527 l -3,437 H 384 178 Z"
       id="path22" /><path
       d="m 2229,1783 c 27,-75 72,-195 344,-913 l 123,-325 221,-3 221,-2 10,27 c 5,16 112,301 236,636 124,334 228,618 232,632 l 6,25 h -205 -206 l -25,-82 c -173,-565 -262,-846 -267,-840 -6,6 -289,905 -289,917 0,3 -97,5 -215,5 h -215 z"
       id="path23" /><path
       d="m 9050,1856 c 0,-2 115,-175 255,-384 l 255,-380 V 816 540 h 205 205 v 276 276 l 245,365 c 135,201 250,374 256,384 9,18 2,19 -215,19 h -225 l -132,-220 c -73,-121 -134,-218 -137,-215 -3,3 -62,100 -132,217 l -127,213 -227,3 c -124,1 -226,0 -226,-2 z"
       id="path24" /><path
       d="m 11090,1720 v -140 l 327,-2 328,-3 -368,-382 -368,-383 3,-132 3,-133 628,-3 628,-2 -3,142 -3,143 -376,5 -376,5 363,379 364,379 v 133 134 h -575 -575 z"
       id="path25" /><path
       d="m 6910,1841 c 0,-5 90,-147 200,-315 110,-168 200,-308 200,-311 0,-3 -101,-158 -225,-345 L 6861,530 h 229 228 l 125,202 c 69,112 129,203 134,203 4,0 64,-91 132,-203 l 124,-202 h 229 c 181,0 228,3 222,13 -5,6 -104,158 -221,336 -118,179 -212,329 -210,335 3,6 91,145 197,310 105,164 194,305 197,312 4,12 -32,14 -215,14 h -221 l -112,-201 c -61,-110 -115,-197 -120,-192 -5,5 -57,94 -117,198 l -110,190 -221,3 c -136,1 -221,-1 -221,-7 z"
       id="path26" /></g></svg>
